<?xml version="1.0" encoding="UTF-8" standalone="no"?>
<svg
   xmlns:dc="http://purl.org/dc/elements/1.1/"
   xmlns:cc="http://creativecommons.org/ns#"
   xmlns:rdf="http://www.w3.org/1999/02/22-rdf-syntax-ns#"
   xmlns:svg="http://www.w3.org/2000/svg"
   xmlns="http://www.w3.org/2000/svg"
   viewBox="0 0 950.98669 222.98666"
   height="222.98666"
   width="950.98669"
   xml:space="preserve"
   id="svg2"
   version="1.1"><metadata
     id="metadata8"><rdf:RDF><cc:Work
         rdf:about=""><dc:format>image/svg+xml</dc:format><dc:type
           rdf:resource="http://purl.org/dc/dcmitype/StillImage" /></cc:Work></rdf:RDF></metadata><defs
     id="defs6" /><g
     transform="matrix(1.3333333,0,0,-1.3333333,0,222.98667)"
     id="g10"><g
       transform="scale(0.1)"
       id="g12"><path
         id="path14"
         style="fill:#ed1c24;fill-opacity:1;fill-rule:nonzero;stroke:none"
         d="M 0,1672.44 V 0 H 7132.4 V 1672.44 H 0" /><path
         id="path16"
         style="fill:#ffffff;fill-opacity:1;fill-rule:nonzero;stroke:none"
         d="M 17.4883,1655 V 17.5 H 1672.42 V 1655 H 17.4883" /><path
         id="path18"
         style="fill:#1a1542;fill-opacity:1;fill-rule:nonzero;stroke:none"
         d="m 569.805,478.582 c -4.578,0 -8.274,3.719 -8.274,8.289 0,2.641 1.235,5.008 3.157,6.527 l 168.195,124.141 -441.672,-0.09 c -4.629,0 -8.32,3.711 -8.32,8.34 0,2.801 1.406,5.262 3.547,6.781 l 231.011,170.262 c 1.496,1.512 3.586,2.422 5.864,2.422 h 179.136 c 40.149,-1.465 61.574,-5.742 73.969,-13.906 15.059,-10.02 19.48,-21.555 22.266,-29.114 19.937,-54.851 45.742,-229.652 46.968,-238.175 1.262,8.523 27.024,183.324 46.993,238.175 2.816,7.559 7.238,19.094 22.335,29.114 12.356,8.164 33.758,12.441 73.907,13.906 h 439.193 c 4.58,0 8.34,-3.711 8.34,-8.293 0,-2.891 -1.5,-5.398 -3.71,-6.914 L 1013.85,480.27 c -1.42,-1.079 -3.16,-1.688 -5.01,-1.688 H 569.805" /><path
         id="path20"
         style="fill:#ed1c24;fill-opacity:1;fill-rule:nonzero;stroke:none"
         d="m 1400.04,1054.57 c 4.6,0 8.32,-3.67 8.32,-8.3 0,-2.81 -1.41,-5.27 -3.53,-6.78 L 1172.29,868.32 c -1.34,-0.957 -2.98,-1.476 -4.76,-1.476 H 988.457 c -40.215,1.426 -61.641,5.703 -73.977,13.918 -15.046,9.968 -19.5,21.504 -22.261,29.109 -20,54.805 -45.766,229.609 -46.992,238.119 -1.25,-8.51 -27.043,-183.314 -46.997,-238.119 -2.808,-7.605 -7.253,-19.141 -22.312,-29.109 -12.355,-8.215 -33.801,-12.492 -73.914,-13.918 L 262.59,866.719 c -4.57,0 -8.332,3.711 -8.332,8.289 0,2.512 1.125,4.758 2.937,6.269 l 13.34,9.895 406.367,300.488 c 1.465,1.12 3.286,1.82 5.227,1.82 h 439.051 c 4.63,0 8.34,-3.71 8.34,-8.34 0,-2.72 -1.34,-5.1 -3.37,-6.66 l -168.154,-123.96 442.044,0.05" /><path
         id="path22"
         style="fill:#ffffff;fill-opacity:1;fill-rule:nonzero;stroke:none"
         d="m 4262.12,834.227 -69.72,-1.981 v 126.551 h 69.04 c 40.14,0 59.14,-26.082 59.14,-59.988 0,-37.844 -21.13,-63.282 -58.46,-64.582 z m 126.1,-46.993 c 42.24,18.274 64,60.684 64,120.039 0,78.957 -56.97,147.417 -164,147.417 h -215.47 c -2.15,0 -5.67,0.69 -5.67,-5.87 0,-80.218 0,-141.547 0,-213.293 0,-66.562 0,-132.433 0,-212.039 0,-6.519 0,-5.867 5.67,-5.867 41.5,0 69.67,0 114.02,0 4.94,0 5.63,0.641 5.63,5.867 0,50.242 0,121.981 0,121.981 l 80.31,1.336 c 0,0 50.66,-74.375 73.95,-116.145 6.3,-11.711 9.12,-13.039 14.72,-13.039 h 123.28 c 7.74,0 9.85,4.578 1.39,17.617 -40.14,60.688 -80.25,125.258 -97.83,151.996 z m -379.01,-77.695 c 0,-31.961 0,-56.758 0,-82.84 0,-7.82 -0.74,-9.117 -7.77,-9.117 h -317.52 c -7.03,0 -7.77,1.297 -7.77,9.117 0,112.86 0,297.469 0,421.431 0,5.83 -0.69,6.48 6.35,6.48 h 314.74 c 6.31,0 7.05,-0.65 7.05,-8.47 0,-31.96 0,-50.878 0,-78.952 0,-5.188 -2.11,-8.469 -7.05,-8.469 L 3798,960.703 v -73.078 h 195.02 c 6.31,0 7.03,-1.297 7.03,-9.109 0,-31.321 0,-52.871 0,-78.313 0,-7.82 -0.72,-9.121 -7.03,-9.121 H 3798 v -75.019 l 203.44,1.945 c 7.77,0 7.77,0 7.77,-8.469 z M 6721.56,1046.8 V 614.301 c 0,0 -0.71,-11.75 -8.48,-6.571 -104.86,73.09 -268.96,212.727 -268.96,212.727 V 623.41 c 0,-5.828 0,-5.828 -6.33,-5.828 -43.63,0 -63.38,0 -104.9,0 -4.93,0 -7.04,6.477 -7.04,6.477 v 437.071 c 0,0 4.22,6.57 7.74,4.58 99.28,-65.866 269.65,-211.991 269.65,-211.991 V 1046.8 c 0,7.16 0,7.81 5.66,7.81 41.54,0 61.93,0 105.61,0 7.05,0 7.05,-7.81 7.05,-7.81 z M 3169.79,709.539 c 0,-31.961 0,-56.758 0,-82.84 0,-7.82 -0.73,-9.117 -7.77,-9.117 h -317.51 c -7.04,0 -7.77,1.297 -7.77,9.117 0,112.86 0,297.469 0,421.431 0,5.83 -0.7,6.48 6.35,6.48 h 314.74 c 6.31,0 7.04,-0.65 7.04,-8.47 0,-31.96 0,-50.878 0,-78.952 0,-5.188 -2.12,-8.469 -7.04,-8.469 l -199.29,1.984 v -73.078 h 195.06 c 6.3,0 7.04,-1.297 7.04,-9.109 0,-31.321 0,-52.871 0,-78.313 0,-7.82 -0.74,-9.121 -7.04,-9.121 h -195.06 v -75.019 l 203.48,1.945 c 7.77,0 7.77,0 7.77,-8.469 z m 3097.84,0 c 0,-31.961 0,-56.758 0,-82.84 0,-7.82 -0.72,-9.117 -7.77,-9.117 h -317.52 c -7.03,0 -7.77,1.297 -7.77,9.117 0,112.86 0,297.469 0,421.431 0,5.83 -0.69,6.48 6.34,6.48 h 314.77 c 6.29,0 7.03,-0.65 7.03,-8.47 0,-31.96 0,-50.878 0,-78.952 0,-5.188 -2.11,-8.469 -7.03,-8.469 l -199.28,1.984 v -73.078 h 195.04 c 6.31,0 7.03,-1.297 7.03,-9.109 0,-31.321 0,-52.871 0,-78.313 0,-7.82 -0.72,-9.121 -7.03,-9.121 H 6056.4 v -75.019 l 203.46,1.945 c 7.77,0 7.77,0 7.77,-8.469 z m -391.15,339.241 c 0,-50.276 0,-130.491 0,-213.331 0,-82.89 0,-161.808 0,-212.039 0,-5.23 -0.68,-5.828 -7.05,-5.828 -45.74,0 -71.82,0 -115.45,0 -6.35,0 -6.35,-0.691 -6.35,5.828 0,79.606 0,145.477 0,212.039 0,71.739 0,133.074 0,213.331 0,6.47 0,5.83 6.35,5.83 43.63,0 69.71,0 115.45,0 6.37,0 7.05,-0.65 7.05,-5.83 z m -186.9,-1.98 V 614.301 c 0,0 -0.74,-11.75 -8.47,-6.571 -104.88,73.09 -268.97,212.727 -268.97,212.727 V 623.41 c 0,-5.828 0,-5.828 -6.34,-5.828 -43.64,0 -63.36,0 -104.91,0 -4.88,0 -7.05,6.477 -7.05,6.477 v 437.071 c 0,0 4.24,6.57 7.78,4.58 99.25,-65.866 269.66,-211.991 269.66,-211.991 V 1046.8 c 0,7.16 0,7.81 5.63,7.81 41.52,0 61.97,0 105.62,0 7.05,0 7.05,-7.81 7.05,-7.81 z m -453.78,1.98 c 0,-50.276 0,-130.491 0,-213.331 0,-82.89 0,-161.808 0,-212.039 0,-5.23 -0.73,-5.828 -7.05,-5.828 -45.79,0 -71.8,0 -115.45,0 -6.35,0 -6.35,-0.691 -6.35,5.828 0,79.606 0,145.477 0,212.039 0,71.739 0,133.074 0,213.331 0,6.47 0,5.83 6.35,5.83 43.65,0 69.66,0 115.45,0 6.32,0 7.05,-0.65 7.05,-5.83 z M 5048.88,716.707 c 0,-24.793 0,-43.066 0,-93.297 0,-5.23 0,-5.828 -5.62,-5.828 -43.66,0 -270.43,0 -311.27,0 -6.33,0 -6.33,-0.691 -6.33,5.828 0,79.606 0,145.477 0,212.039 0,71.739 0,133.074 0,213.331 0,6.47 0,5.83 6.33,5.83 40.84,0 69.7,0 112.67,0 5.61,0 6.33,-0.65 6.33,-5.83 0,-67.862 0,-327.53 0,-327.53 l 191.56,1.98 c 5.63,0 6.33,-1.296 6.33,-6.523 z M 2604.36,1056.77 h 174.28 L 2210.13,613.082 v 168.801 l -12.09,-9.199 -209.36,-159.813 v 335.098 l 140.46,108.801 V 867.324 851.816 l 12.14,9.59 213.16,168.154 V 878.211 862.918 l 12.09,9.375 z m 174.28,-85.207 c 0,-5.918 0,-12.219 0,-18.918 0,-50.02 0,-45.223 0,-117.997 0,-82.5 0,-161.113 0,-211.136 0,-5.223 -0.78,-5.871 -7.34,-5.871 -47.47,0 -63.46,0 -108.81,0 -6.56,0 -6.56,-0.61 -6.56,5.871 l -0.3,263.527 115.67,90.363 c 6.56,0 7.34,-0.656 7.34,-5.839 z m 839.21,74.957 V 614.461 c 0,0 -0.71,-11.75 -8.3,-6.563 -103.37,73 -264.99,212.473 -264.99,212.473 V 623.57 c 0,-5.871 0,-5.871 -6.22,-5.871 -43.02,0 -62.41,0 -103.37,0 -4.83,0 -6.95,6.531 -6.95,6.531 v 436.64 c 0,0 4.15,6.52 7.64,4.53 97.8,-65.783 265.69,-211.779 265.69,-211.779 v 192.899 c 0,7.17 0,7.82 5.53,7.82 40.91,0 61.03,0 104.05,0 6.92,0 6.92,-7.82 6.92,-7.82" /></g></g></svg>